<?xml version="1.0" encoding="utf-8"?>
<!-- Generator: Adobe Illustrator 19.2.1, SVG Export Plug-In . SVG Version: 6.00 Build 0)  -->
<svg version="1.1" id="Layer_1" xmlns="http://www.w3.org/2000/svg" xmlns:xlink="http://www.w3.org/1999/xlink" x="0px" y="0px"
	 viewBox="0 0 156.2 37.7" enable-background="new 0 0 156.2 37.7" xml:space="preserve">
<g>
	<path d="M20.2,17.9c0,5.3-4.2,9.4-9.3,9.4c-3.5,0-6.3-1.8-7.7-4.6v4.2H1.4V1.7h1.8v11.4c1.5-2.8,4.2-4.6,7.7-4.6
		C16.1,8.5,20.2,12.6,20.2,17.9z M18.4,17.9c0-4.3-3.3-7.7-7.6-7.7c-4.3,0-7.6,3.4-7.6,7.7c0,4.3,3.3,7.7,7.6,7.7
		C15.1,25.6,18.4,22.2,18.4,17.9z"/>
	<path d="M24.6,0.7h1.8v26.3h-1.8V0.7z"/>
	<path d="M49.6,8.9v18h-1.8v-4.1c-1.5,2.7-4.3,4.5-7.7,4.5c-5.1,0-9.3-4.1-9.3-9.4c0-5.3,4.2-9.4,9.3-9.4c3.5,0,6.2,1.8,7.7,4.5V8.9
		H49.6z M47.8,17.9c0-4.3-3.3-7.7-7.6-7.7c-4.3,0-7.6,3.4-7.6,7.7c0,4.3,3.3,7.7,7.6,7.7C44.5,25.6,47.8,22.2,47.8,17.9z"/>
	<path d="M53.9,17.9c0-5.3,4-9.4,9.5-9.4c3.5,0,6.6,1.8,7.8,4.6L69.8,14c-1-2.3-3.5-3.7-6.4-3.7c-4.4,0-7.6,3.4-7.6,7.7
		c0,4.3,3.3,7.7,7.6,7.7c2.9,0,5.3-1.5,6.5-3.7l1.5,0.9c-1.4,2.8-4.5,4.6-8,4.6C58,27.3,53.9,23.3,53.9,17.9z"/>
	<path d="M86.7,26.9l-9.5-8.9v8.9h-1.8V1.7h1.8v15.4l9.1-8.2h2.5l-9.7,8.6l10,9.4H86.7z"/>
	<path d="M105.1,22c0,3.3-2.9,5.4-6.7,5.4c-3.6,0-6.1-1.7-7.2-4.2l2.7-1.5c0.6,1.7,2.2,2.8,4.5,2.8c1.9,0,3.6-0.7,3.6-2.4
		c0-3.9-10.1-1.7-10.1-8.2c0-3.2,2.7-5.4,6.4-5.4c3,0,5.3,1.4,6.5,3.7l-2.6,1.5c-0.7-1.6-2.3-2.3-3.9-2.3c-1.6,0-3.2,0.8-3.2,2.4
		C95,17.7,105.1,15.4,105.1,22z"/>
	<path d="M124.6,15.9v11.1h-3.1V16.1c0-3-1.7-4.6-4.5-4.6c-2.9,0-5.2,1.7-5.2,5.9v9.5h-3.1V1.7h3.1v9.8c1.3-2.1,3.3-3.1,5.8-3.1
		C121.8,8.5,124.6,11.3,124.6,15.9z"/>
	<path d="M128.4,3.6c0-1.2,0.9-2.1,2.1-2.1c1.2,0,2.1,1,2.1,2.1s-0.9,2.1-2.1,2.1C129.3,5.7,128.4,4.7,128.4,3.6z M129,8.9h3.1v18
		H129V8.9z"/>
	<path d="M155.9,17.9c0,5.3-4.1,9.5-9.1,9.5c-3.1,0-5.4-1.4-6.8-3.6v10.3h-3.1V8.9h3.1V12c1.4-2.2,3.7-3.6,6.8-3.6
		C151.8,8.5,155.9,12.6,155.9,17.9z M152.8,17.9c0-3.7-2.8-6.4-6.4-6.4c-3.6,0-6.4,2.8-6.4,6.4c0,3.7,2.8,6.4,6.4,6.4
		C150,24.4,152.8,21.6,152.8,17.9z"/>
</g>
</svg>
